<?xml version="1.0" encoding="utf-8"?>
<!-- Generator: Adobe Illustrator 17.0.2, SVG Export Plug-In . SVG Version: 6.00 Build 0)  -->
<!DOCTYPE svg PUBLIC "-//W3C//DTD SVG 1.1//EN" "http://www.w3.org/Graphics/SVG/1.1/DTD/svg11.dtd">
<svg version="1.1" id="Layer_1" xmlns="http://www.w3.org/2000/svg" xmlns:xlink="http://www.w3.org/1999/xlink" x="0px" y="0px"
	 width="216px" height="216px" viewBox="0 0 216 216" enable-background="new 0 0 216 216" xml:space="preserve">
<g>
	<g>
		<path d="M24.417,170.701L108,45.45l83.584,125.251H24.417z M171.363,159.91l-63.379-94.98l-63.379,94.98H171.363z"/>
		<text transform="matrix(1.1111 0 0 1 49.9746 169.0269)" fill="#FFFFFF" font-family="'Amplitude-Medium'" font-size="10.0138">ARTS &amp; ENTERTAINMENT</text>
		
			<text transform="matrix(0.6169 -0.9241 0.8317 0.5552 54.2807 141.2277)" fill="#FFFFFF" font-family="'Amplitude-Medium'" font-size="10.0136">N</text>
		
			<text transform="matrix(0.6169 -0.9241 0.8317 0.5552 58.118 135.4794)" fill="#FFFFFF" font-family="'Amplitude-Medium'" font-size="10.0136">EWS &amp; SPORTS</text>
		
			<text transform="matrix(0.6174 0.9238 -0.8314 0.5557 113.4293 69.7847)" fill="#FFFFFF" font-family="'Amplitude-Medium'" font-size="10.0137">OPINION &amp; EDITORIAL</text>
	</g>
	<path d="M122.51,137.975c0.945-0.084,1.805-0.694,2.334-1.453c0.546,1.725,1.369,4.354-0.065,5.965
		c-0.431,0.422-0.953,0.61-1.571,0.602c-2.359-0.17-3.372-2.661-4.013-4.672c-0.457-1.391-0.44-2.917-0.613-4.444
		C119.272,135.652,120.43,138.001,122.51,137.975 M125.756,113.778c0.038,0.669,0.318,1.197,0.786,1.682
		c0.606,0.481,1.504,0.776,2.313,0.452c0.14-0.046,0.282-0.143,0.472-0.19c-0.716,0.761-1.49,2.323-2.809,1.975
		C125.388,116.827,125.836,115.069,125.756,113.778 M135.84,112.46c0.719-0.852,2.371-0.644,2.878,0.412
		c0.089,0.528-0.197,0.949-0.623,1.137c-0.714,0.182-1.658,0.172-2.173-0.405C135.69,113.266,135.551,112.792,135.84,112.46
		 M139.53,142.22c0.424,0.197,0.846,0.536,1.032,1.013c-0.057,0.764-0.58,1.09-1.245,1.322
		C139.56,143.842,139.617,142.986,139.53,142.22 M130.276,158.432c-0.053,0.43-0.386,0.807-0.814,0.9
		c-0.569,0.042-0.702-0.486-0.841-0.917l-0.04-0.668L130.276,158.432z M134.49,157.858c0.708-0.086,1.37,0.064,1.933,0.449
		c0.417,0.434,0.649,0.916,0.549,1.537c-0.003,0.524-0.483,1.041-0.909,1.23c-0.998,0.418-2.175,0.072-3.024-0.419
		C133.853,159.855,134.335,158.908,134.49,157.858 M79.771,155.443c1.784,1.115-0.361,2.714,0.473,4.154
		c0.186,0.482,0.701,0.581,1.128,0.732l7.471-0.11c2.46-0.117,4.962,0.196,7.328,0.033c1.849-0.553,2.254-3.077,4.056-3.628
		c0.567-0.138,1.038,0.151,1.317,0.587c0.234,0.385,0.227,0.954,0.08,1.381c-0.241,0.621-0.718,0.993-1.381,1.083
		c-0.475,0.04-0.896-0.201-1.223-0.539c0.232,0.476,0.414,0.912,0.882,1.298c0.515,0.339,1.127,0.582,1.746,0.402
		c1.234-0.323,2.097-1.502,2.298-2.744c0.106-0.81-0.267-1.528-0.685-2.058c0.707,0.008,1.274,0.253,1.787,0.738
		c0.422,0.479,0.604,1.15,0.454,1.768c-0.196,0.761-0.912,1.181-1.479,1.369c0.47,0.053,1.084,0.106,1.511-0.08
		c0.668-0.324,1.244-1.036,1.488-1.796c0.246-0.762-0.03-1.576-0.355-2.198c-0.88-1.49-2.53-2.079-4.234-1.86
		c-2.703,0.734-4.852,2.853-7.693,3.346c-1.328,0.084-2.887,0.069-3.679-0.989c-0.186-0.435-0.037-0.955,0.299-1.289
		c2.481-2.212,5.656-2.989,7.908-5.681c2.866-2.641,3.577-7.167,2.106-10.81c-1.575-3.067-3.524-6.095-3.582-9.676
		c0.071-2.001,1.323-3.992,3.127-4.737c1.803-0.689,3.878-0.239,5.476,0.635c3.423,2.422,3.75,7.055,3.045,11.055
		c-0.71,4.331,0.519,8.59,3.37,11.725c4.015,4.432,8.855,7.491,14.03,9.599c0.361,1.483,0.58,3.01,1.847,4.074
		c0.841,0.775,2.307,0.742,3.258,0.231c0.61,0.529,1.264,1.157,2.017,1.451c1.173,0.632,2.973,0.557,3.973-0.242
		c0.669-0.519,1.006-1.133,1.11-1.898c0.502-2.857-3.658-2.949-3.013-5.756c0.196-0.569,0.768-0.946,1.336-1.038
		c0.617-0.084,1.229,0.111,1.695,0.5c0.89,0.818,1.209,2.157,0.914,3.206l0.626-1.138c0.584-1.381,0.174-3.004-0.473-4.205
		c-0.794-1.152-2.112-1.645-3.533-1.472c-1.941,0.362-3.235,2.16-4.151,3.773c-1.696-0.832-3.39-1.612-4.984-2.629l2.553-0.164
		c3.511-0.917,7.456-2.781,8.912-6.342c1.322,0.156,2.834,0.268,3.698-0.915c0.526-0.661,0.587-1.708,0.216-2.479
		c0.658,0.107,1.228,0.347,1.74,0.736c0.563,0.485,1.217,1.208,1.113,2.061c-0.005,0.575-0.201,1.049-0.631,1.425
		c-0.906,0.807-2.461,0.357-3.309-0.084c0.184,0.481,0.512,0.964,0.931,1.347c0.795,0.867,2.018,1.311,3.16,0.843
		c1.043-0.512,1.53-1.602,1.496-2.799c-0.072-2.19-2.994-2.843-2.449-5.179c0.241-0.378,0.574-0.659,1.048-0.603
		c0.613,0.006,1.178,0.389,1.549,0.92c0.465,0.675,0.36,1.818,0.21,2.532c0.384-0.518,0.673-1.088,0.824-1.706
		c0.298-1.526-0.16-2.961-1.138-4.072c-0.937-0.867-2.209-1.355-3.443-0.892c-1.708,0.458-2.391,2.307-2.83,3.736
		c-0.374-0.483-1.087-0.157-1.512-0.063c-0.3-3.059-2.824-5.661-5.6-6.697c-2.685-0.935-5.503-2.779-6.176-5.887
		c-0.179-1.101-0.119-2.388,0.649-3.19c0.908-0.94,2.329-1.072,3.454-0.579c1.749,0.687,2.294,2.551,2.796,4.082
		c-0.076-1.954,0.47-3.809,2.087-4.888c-0.181-0.671-0.699-1.06-1.12-1.492c-1.262-0.97-2.771-1.51-4.383-1.051
		c-1.28,0.226-2.332,1.217-3.19,1.968c0.631-1.424,1.119-2.948,2.264-4.125c1.244-1.179,2.816-2.257,4.607-1.568
		c1.598,0.587,2.572,2.363,2.933,3.988c0.321-3.477,2.153-6.654,4.826-8.77c-0.811,0.512-1.993,0.646-2.84,0.11
		c-1.126-0.917-2.439-1.839-4.048-1.33c-2.469,0.592-4.15,3.245-6.707,3.505c-0.945-0.059-1.695-0.642-2.3-1.361
		c-1.215-1.541-0.859-3.827,0.011-5.394c0.963-1.608,2.534-2.642,4.285-2.861l-0.895-0.059c-3.834,0.245-7.828,2.253-9.288,6.098
		c-1.024,2.807-0.302,6.057,1.327,8.269c-0.843-0.626-1.685-1.449-2.289-2.408c-1.255-1.972-1.034-4.88,0.027-6.873
		c-1.293,1.612-2.637,3.22-3.176,5.17c-0.743,3.045,0.36,6.059,2.224,8.368c0.608,0.769,1.172,1.256,1.727,1.977
		c-1.127-0.49-2.156-1.406-2.949-2.417c0.196,3.436,1.337,7.362,4.582,8.733c-0.942-0.155-1.838-0.452-2.684-0.89
		c-2.16-1.267-2.371-3.701-3.247-5.711c-0.409-1.344-1.77-2.316-2.657-3.278c1.559,0.069,2.914,1.371,3.563,2.666l-0.314-1.481
		c-1.062-2.495-3.645-3.812-6.292-3.933c0.287-0.236,0.57-0.377,0.856-0.469c1.659-0.317,3.163,0.421,4.43,1.289l-1.159-1.874
		c-1.866-2.451-5.562-1.872-7.983-0.998c0.196-0.565,0.865-1.034,1.343-1.365c1.045-0.653,2.47-1.163,3.692-0.483
		c-0.514-0.671-1.408-1.115-2.208-1.455c-3.481-1.328-7.089-0.08-9.67,2.23c0.213-1.95,2.162-3.123,3.731-3.823
		c-0.516-0.1-1.036-0.202-1.606-0.158c-3.779-0.235-6.79,2.74-8.243,5.773c0.02-1.666,0.698-3.042,1.705-4.325l-1.239,0.661
		c-3.231,1.676-4.69,5.335-4.354,9.06l-0.092-0.096c-1.217-1.256-1.096-3.35-0.469-4.681c-0.865,1.185-1.351,2.61-1.462,4.089
		c-0.313,2.379,0.992,4.305,1.963,6.175c-1.787-0.545-2.761-2.466-2.978-4.181c-1.032,3.612,0.825,6.734,2.592,9.423
		c-1.319-0.491-2.583-1.555-3.136-2.899c0.201,3.296,2.482,6.469,5.014,8.309c-1.371,0.08-2.642-0.503-3.438-1.371
		c0.824,2.536,2.837,4.563,4.849,6.397c-1.374,0.176-2.59-0.936-3.431-1.849c-0.252,1.472,0.063,2.861,0.521,4.061l-0.42-0.197
		c-0.99-0.583-1.638-1.639-1.438-2.783c-0.865,1.277-1.542,2.749-1.513,4.467l-0.096,0.098c-1.031-0.92-1.442-2.164-1.19-3.497
		c-1.193,1.035-2.205,2.648-2.694,4.213c-0.602-1.293-0.06-3.053,0.515-4.096c-1.659,0.603-3.142,2.207-4.15,3.582
		c0.014-1.24,0.262-2.431,0.98-3.38c-1.418,0.13-2.662,1.453-3.336,2.688c-0.411-1.391,0.596-2.621,1.315-3.564
		c-1.04,0.034-1.944,0.597-2.85,1.162c-0.284,0.183-0.478,0.518-0.713,0.657c-0.129-1.434,0.456-2.715,1.738-3.321
		c-1.464-0.301-2.701,0.401-3.658,1.484l-0.042-0.378c0.061-1.336,0.925-2.662,2.257-3.218c-1.223-0.587-2.506,0.018-3.412,0.724
		c-0.269-1.386,0.83-2.471,1.877-3.035c-0.844-0.722-2.215-0.737-3.118-0.272c0.344-1.044,1.343-1.555,2.289-1.788
		c-0.696-1.009-1.83-1.164-2.917-1.363c0.718-0.761,1.76-0.89,2.753-0.785l-0.418-0.765c-0.513-0.77-1.502-1.022-2.206-1.313
		l0.711-0.327c0.57-0.137,1.229,0.01,1.7,0.354c0.015-1.477-1.588-1.971-2.479-2.556c1.046-0.419,2.176,0.072,2.924,0.558
		c-0.317-1.099-1.066-1.872-1.907-2.599c1.086-0.272,2.071,0.501,2.724,1.273c0.154-1.001-0.309-1.915-0.724-2.68
		c0.94,0.342,1.973,1.117,2.342,1.98c0.1-0.569,0.203-1.334,0.021-1.855c2.025,0.685,3.611,2.467,4.584,4.241L79.35,129.3
		c-0.634-2.492-2.788-4.663-5.382-5.024c-3.256-0.61-6.25,0.884-8.075,3.442c-3.459,4.921-1.216,11.766,1.428,16.331
		C70.243,149.135,75.269,152.29,79.771,155.443"/>
</g>
</svg>
